<svg enable-background="new 0 0 500 60" version="1.1" viewBox="0 0 500 60" xml:space="preserve" xmlns="http://www.w3.org/2000/svg">
                  <linearGradient id="a" x1="134.12" x2="365.88" y1="-108.1" y2="168.1" gradientUnits="userSpaceOnUse">
                      <stop stop-color="#2E5BA7" offset=".01"></stop>
                      <stop stop-color="#3678AF" offset=".1701"></stop>
                      <stop stop-color="#4592B1" offset=".344"></stop>
                      <stop stop-color="#55A6AE" offset=".5132"></stop>
                      <stop stop-color="#61B4AA" offset=".6742"></stop>
                      <stop stop-color="#68BCA7" offset=".8236"></stop>
                      <stop stop-color="#6BBFA6" offset=".95"></stop>
                  </linearGradient>
                  <path class="st0" d="M500,53.23c0,3.68-4.49,6.69-9.98,6.69H9.98C4.49,59.92,0,56.91,0,53.23V6.77c0-3.68,4.49-6.69,9.98-6.69     h480.04c5.49,0,9.98,3.01,9.98,6.69V53.23z"></path>
                  <path class="st1" d="m66.67 52.92h-32.19c-3.54 0-6.41-2.88-6.41-6.41v-32.19c0-3.54 2.88-6.41 6.41-6.41h32.18c3.54 0 6.41 2.88 6.41 6.41v32.18c0.01 3.54-2.87 6.42-6.4 6.42zm-32.19-44.29c-3.14 0-5.69 2.55-5.69 5.69v32.18c0 3.14 2.55 5.69 5.69 5.69h32.18c3.14 0 5.69-2.55 5.69-5.69v-32.18c0-3.14-2.55-5.69-5.69-5.69h-32.18z"></path>
              <path class="st1" d="m44.1 45.68c-1.05 0-1.91-0.86-1.91-1.91s0.86-1.91 1.91-1.91c0.26 0 0.48 0.21 0.48 0.48 0 0.26-0.21 0.48-0.48 0.48-0.53 0-0.95 0.43-0.95 0.95s0.43 0.95 0.95 0.95c0.26 0 0.48 0.21 0.48 0.48s-0.21 0.48-0.48 0.48z"></path>
          <path class="st1" d="m61.76 42.82h-17.66c-0.26 0-0.48-0.21-0.48-0.48 0-0.26 0.21-0.48 0.48-0.48h17.66c0.26 0 0.48 0.21 0.48 0.48s-0.22 0.48-0.48 0.48z"></path>
          <path class="st1" d="m61.76 45.68h-17.66c-0.26 0-0.48-0.21-0.48-0.48 0-0.26 0.21-0.48 0.48-0.48h17.66c0.26 0 0.48 0.21 0.48 0.48s-0.22 0.48-0.48 0.48z"></path>
          <path class="st1" d="m61.76 42.82c-0.26 0-0.48-0.21-0.48-0.48 0-0.26 0.21-0.48 0.48-0.48 0.53 0 0.95-0.43 0.95-0.95 0-0.26 0.21-0.48 0.48-0.48 0.26 0 0.48 0.21 0.48 0.48 0 1.05-0.86 1.91-1.91 1.91z"></path>
          <path class="st1" d="m63.19 17.53c-0.26 0-0.48-0.21-0.48-0.48 0-0.53-0.43-0.95-0.95-0.95-0.26 0-0.48-0.21-0.48-0.48 0-0.26 0.21-0.48 0.48-0.48 1.05 0 1.91 0.86 1.91 1.91 0 0.26-0.21 0.48-0.48 0.48z"></path>
          <path class="st1" d="m42.67 17.53c-0.26 0-0.48-0.21-0.48-0.48 0-1.05 0.86-1.91 1.91-1.91 0.26 0 0.48 0.21 0.48 0.48 0 0.26-0.21 0.48-0.48 0.48-0.53 0-0.95 0.43-0.95 0.95 0 0.26-0.22 0.48-0.48 0.48z"></path>
          <path class="st1" d="m61.76 45.68c-0.26 0-0.48-0.21-0.48-0.48 0-0.26 0.21-0.48 0.48-0.48 0.53 0 0.95-0.43 0.95-0.95 0-0.26 0.21-0.48 0.48-0.48 0.26 0 0.48 0.21 0.48 0.48 0 1.06-0.86 1.91-1.91 1.91z"></path>
          <path class="st1" d="m63.19 26.59c-0.12 0-0.24-0.05-0.34-0.14-0.19-0.19-0.19-0.49 0-0.67l1.77-1.77v-5.53h-1.43c-0.26 0-0.48-0.21-0.48-0.48s0.21-0.48 0.48-0.48h1.91c0.26 0 0.48 0.21 0.48 0.48v6.2c0 0.13-0.05 0.25-0.14 0.34l-1.91 1.91c-0.09 0.1-0.22 0.14-0.34 0.14z"></path>
          <path class="st1" d="m61.76 16.09h-17.66c-0.26 0-0.48-0.21-0.48-0.48 0-0.26 0.21-0.48 0.48-0.48h17.66c0.26 0 0.48 0.21 0.48 0.48s-0.22 0.48-0.48 0.48z"></path>
          <path class="st1" d="m42.67 44.25c-0.26 0-0.48-0.21-0.48-0.48v-26.72c0-0.26 0.21-0.48 0.48-0.48 0.26 0 0.48 0.21 0.48 0.48v26.72c0 0.27-0.22 0.48-0.48 0.48z"></path>
          <path class="st1" d="m61.28 44.25h-16.7c-0.26 0-0.48-0.21-0.48-0.48 0-0.26 0.21-0.48 0.48-0.48h16.7c0.26 0 0.48 0.21 0.48 0.48s-0.21 0.48-0.48 0.48z"></path>
          <path class="st1" d="m61.28 44.25c-0.26 0-0.48-0.21-0.48-0.48v-1.43c0-0.26 0.21-0.48 0.48-0.48 0.26 0 0.48 0.21 0.48 0.48v1.43c0 0.27-0.21 0.48-0.48 0.48z"></path>
          <path class="st1" d="m44.58 44.25c-0.26 0-0.48-0.21-0.48-0.48v-1.43c0-0.26 0.21-0.48 0.48-0.48 0.26 0 0.48 0.21 0.48 0.48v1.43c0 0.27-0.22 0.48-0.48 0.48z"></path>
          <path class="st1" d="m63.19 44.25c-0.26 0-0.48-0.21-0.48-0.48v-26.72c0-0.26 0.21-0.48 0.48-0.48 0.26 0 0.48 0.21 0.48 0.48v26.72c0 0.27-0.21 0.48-0.48 0.48z"></path>
          <path class="st1" d="m42.67 18.48h-6.68c-0.26 0-0.48-0.21-0.48-0.48s0.21-0.48 0.48-0.48h6.68c0.26 0 0.48 0.21 0.48 0.48s-0.22 0.48-0.48 0.48z"></path>
          <path class="st1" d="m42.67 42.34h-4.29c-0.26 0-0.48-0.21-0.48-0.48 0-0.26 0.21-0.48 0.48-0.48h4.29c0.26 0 0.48 0.21 0.48 0.48s-0.22 0.48-0.48 0.48z"></path>
              <defs>
                  <rect id="c" x="35.51" y="15.14" width="30.13" height="30.54"></rect>
              </defs>
              <clipPath id="a">
                  <use xlink:href="#c"></use>
              </clipPath>
              <path class="st1" d="m35.99 39.96c-0.26 0-0.48-0.21-0.48-0.48v-21.48c0-0.26 0.21-0.48 0.48-0.48 0.26 0 0.48 0.21 0.48 0.48v21.48c0 0.26-0.22 0.48-0.48 0.48z"></path>
              <path class="st1" d="m38.38 42.34c-0.12 0-0.24-0.05-0.34-0.14l-2.39-2.39c-0.19-0.19-0.19-0.49 0-0.67 0.19-0.19 0.49-0.19 0.67 0l2.39 2.39c0.19 0.19 0.19 0.49 0 0.67-0.09 0.09-0.21 0.14-0.33 0.14z"></path>
          <path class="st1" d="m38.38 42.34c-0.26 0-0.48-0.21-0.48-0.48v-2.39c0-0.26 0.21-0.48 0.48-0.48 0.26 0 0.48 0.21 0.48 0.48v2.39c-0.01 0.27-0.22 0.48-0.48 0.48z"></path>
          <path class="st1" d="m38.38 39.96h-2.39c-0.26 0-0.48-0.21-0.48-0.48s0.22-0.48 0.48-0.48h2.39c0.26 0 0.48 0.21 0.48 0.48s-0.22 0.48-0.48 0.48z"></path>
          <path class="st1" d="m42.67 25.16h-3.34c-0.26 0-0.48-0.21-0.48-0.48 0-0.26 0.21-0.48 0.48-0.48h3.34c0.26 0 0.48 0.21 0.48 0.48s-0.22 0.48-0.48 0.48z"></path>
          <path class="st1" d="m42.67 28.02h-3.34c-0.26 0-0.48-0.21-0.48-0.48 0-0.26 0.21-0.48 0.48-0.48h3.34c0.26 0 0.48 0.21 0.48 0.48s-0.22 0.48-0.48 0.48z"></path>
          <path class="st1" d="m42.67 30.89h-3.34c-0.26 0-0.48-0.21-0.48-0.48 0-0.26 0.21-0.48 0.48-0.48h3.34c0.26 0 0.48 0.21 0.48 0.48 0 0.26-0.22 0.48-0.48 0.48z"></path>
          <path class="st1" d="m42.67 33.75h-3.34c-0.26 0-0.48-0.21-0.48-0.48 0-0.26 0.21-0.48 0.48-0.48h3.34c0.26 0 0.48 0.21 0.48 0.48s-0.22 0.48-0.48 0.48z"></path>
          <path class="st1" d="m57.46 23.26h-8.59c-0.26 0-0.48-0.21-0.48-0.48 0-0.26 0.21-0.48 0.48-0.48h8.59c0.26 0 0.48 0.21 0.48 0.48s-0.21 0.48-0.48 0.48z"></path>
          <path class="st1" d="m53.17 32.81c-0.26 0-0.48-0.21-0.48-0.48v-10.98c0-0.26 0.21-0.48 0.48-0.48 0.26 0 0.48 0.21 0.48 0.48v10.98c-0.01 0.26-0.22 0.48-0.48 0.48z"></path>
          <path class="st1" d="m56.99 32.81h-7.64c-0.26 0-0.48-0.21-0.48-0.48 0-0.26 0.21-0.48 0.48-0.48h7.64c0.26 0 0.48 0.21 0.48 0.48-0.01 0.26-0.22 0.48-0.48 0.48z"></path>
          <path class="st1" d="m58.9 36.15h-11.46c-0.26 0-0.48-0.21-0.48-0.48 0-0.26 0.21-0.48 0.48-0.48h11.46c0.26 0 0.48 0.21 0.48 0.48-0.01 0.26-0.22 0.48-0.48 0.48z"></path>
          <path class="st1" d="m56.03 37.58h-5.73c-0.26 0-0.48-0.21-0.48-0.48 0-0.26 0.21-0.48 0.48-0.48h5.73c0.26 0 0.48 0.21 0.48 0.48 0 0.26-0.21 0.48-0.48 0.48z"></path>
          <path class="st1" d="m48.87 28.99c-1.05 0-1.91-0.86-1.91-1.91 0-0.26 0.21-0.48 0.48-0.48 0.26 0 0.48 0.21 0.48 0.48 0 0.53 0.43 0.95 0.95 0.95 0.53 0 0.95-0.43 0.95-0.95 0-0.26 0.21-0.48 0.48-0.48 0.26 0 0.48 0.21 0.48 0.48 0 1.05-0.85 1.91-1.91 1.91z"></path>
          <path class="st1" d="m50.3 27.56h-2.86c-0.26 0-0.48-0.21-0.48-0.48 0-0.26 0.21-0.48 0.48-0.48h2.86c0.26 0 0.48 0.21 0.48 0.48 0 0.26-0.21 0.48-0.48 0.48z"></path>
          <path class="st1" d="m47.44 27.56c-0.05 0-0.1-0.01-0.15-0.02-0.25-0.08-0.39-0.35-0.3-0.6l1.43-4.3c0.08-0.25 0.35-0.39 0.6-0.3 0.25 0.08 0.39 0.35 0.3 0.6l-1.43 4.3c-0.06 0.19-0.25 0.32-0.45 0.32z"></path>
          <path class="st1" d="m50.3 27.56c-0.2 0-0.39-0.13-0.45-0.33l-1.43-4.3c-0.08-0.25 0.05-0.52 0.3-0.6s0.52 0.05 0.6 0.3l1.43 4.3c0.08 0.25-0.05 0.52-0.3 0.6-0.05 0.02-0.1 0.03-0.15 0.03z"></path>
          <path class="st1" d="m57.46 28.99c-1.05 0-1.91-0.86-1.91-1.91 0-0.26 0.21-0.48 0.48-0.48 0.26 0 0.48 0.21 0.48 0.48 0 0.53 0.43 0.95 0.95 0.95 0.53 0 0.95-0.43 0.95-0.95 0-0.26 0.21-0.48 0.48-0.48 0.26 0 0.48 0.21 0.48 0.48 0 1.05-0.86 1.91-1.91 1.91z"></path>
          <path class="st1" d="m58.89 27.56h-2.86c-0.26 0-0.48-0.21-0.48-0.48 0-0.26 0.21-0.48 0.48-0.48h2.86c0.26 0 0.48 0.21 0.48 0.48 0 0.26-0.21 0.48-0.48 0.48z"></path>
          <path class="st1" d="m56.03 27.56c-0.05 0-0.1-0.01-0.15-0.02-0.25-0.08-0.39-0.35-0.3-0.6l1.43-4.3c0.08-0.25 0.35-0.39 0.6-0.3 0.25 0.08 0.39 0.35 0.3 0.6l-1.43 4.3c-0.06 0.19-0.25 0.32-0.45 0.32z"></path>
          <path class="st1" d="m58.89 27.56c-0.2 0-0.39-0.13-0.45-0.33l-1.43-4.3c-0.08-0.25 0.05-0.52 0.3-0.6s0.52 0.05 0.6 0.3l1.43 4.3c0.08 0.25-0.05 0.52-0.3 0.6-0.05 0.02-0.1 0.03-0.15 0.03z"></path>
          <text class="st1 st2 st3" transform="translate(85.149 37.798)">Caso Prático</text>
      </svg>