<svg enable-background="new 0 0 500 60" version="1.1" viewBox="0 0 500 60" xml:space="preserve" xmlns="http://www.w3.org/2000/svg">
                  <linearGradient id="a" x1="134.12" x2="365.88" y1="-108.1" y2="168.1" gradientUnits="userSpaceOnUse">
                      <stop stop-color="#2E5BA7" offset=".01"></stop>
                      <stop stop-color="#3678AF" offset=".1701"></stop>
                      <stop stop-color="#4592B1" offset=".344"></stop>
                      <stop stop-color="#55A6AE" offset=".5132"></stop>
                      <stop stop-color="#61B4AA" offset=".6742"></stop>
                      <stop stop-color="#68BCA7" offset=".8236"></stop>
                      <stop stop-color="#6BBFA6" offset=".95"></stop>
                  </linearGradient>
                  <path class="st0" d="M500,53.23c0,3.68-4.49,6.69-9.98,6.69H9.98C4.49,59.92,0,56.91,0,53.23V6.77c0-3.68,4.49-6.69,9.98-6.69     h480.04c5.49,0,9.98,3.01,9.98,6.69V53.23z"></path>
                  <path class="st1" d="m66.67 52.92h-32.19c-3.54 0-6.41-2.88-6.41-6.41v-32.19c0-3.54 2.88-6.41 6.41-6.41h32.18c3.54 0 6.41 2.88 6.41 6.41v32.18c0.01 3.54-2.87 6.42-6.4 6.42zm-32.19-44.29c-3.14 0-5.69 2.55-5.69 5.69v32.18c0 3.14 2.55 5.69 5.69 5.69h32.18c3.14 0 5.69-2.55 5.69-5.69v-32.18c0-3.14-2.55-5.69-5.69-5.69h-32.18z"></path>
              <path class="st1" d="m66.24 20.98c0-0.05-0.01-0.09-0.03-0.14-0.01-0.02-0.01-0.03-0.02-0.05-0.03-0.06-0.06-0.11-0.11-0.15l-6.34-6.34c-0.04-0.04-0.1-0.08-0.16-0.11-0.02-0.01-0.03-0.01-0.05-0.02-0.04-0.02-0.09-0.02-0.14-0.03h-0.03-15.84c-1.46 0-2.64 1.18-2.64 2.64v3.89c-3.63 1.6-5.98 5.2-5.98 9.17s2.34 7.57 5.98 9.17v4.2c0 1.46 1.18 2.64 2.64 2.64h20.09c1.46 0 2.64-1.18 2.64-2.64v-22.2c0-0.01-0.01-0.02-0.01-0.03zm-1.79-0.49h-4.01c-0.29 0-0.53-0.24-0.53-0.53v-4.01l4.54 4.54zm-28.48 9.36c0-2.38 0.94-4.67 2.63-6.36s3.97-2.63 6.36-2.63c0.3 0 0.6 0.01 0.89 0.04 4.09 0.4 7.38 3.53 7.98 7.6 0.07 0.45 0.11 0.9 0.11 1.35 0 1.69-0.47 3.35-1.38 4.78-0.72 1.14-1.68 2.11-2.83 2.83-2.77 1.74-6.26 1.84-9.13 0.25-2.86-1.58-4.63-4.59-4.63-7.86zm15.12 7.94c0.07-0.06 0.14-0.11 0.21-0.17 0.26-0.21 0.51-0.43 0.75-0.67s0.46-0.49 0.67-0.75c0.06-0.07 0.11-0.14 0.17-0.21 0.06-0.08 0.13-0.16 0.19-0.25l4.51 4.51c0.3 0.3 0.47 0.7 0.47 1.12s-0.17 0.82-0.47 1.12c-0.62 0.6-1.61 0.6-2.24 0l-4.51-4.5c0.09-0.07 0.17-0.14 0.25-0.2zm12.52 7.01h-20.09c-0.88 0-1.59-0.71-1.59-1.59v-3.78c0.03 0.01 0.07 0.02 0.1 0.03 0.08 0.03 0.17 0.05 0.26 0.07 0.2 0.05 0.4 0.11 0.6 0.15l0.3 0.06c0.2 0.04 0.4 0.06 0.61 0.09 0.09 0.01 0.18 0.02 0.27 0.03 0.29 0.03 0.59 0.04 0.89 0.04 1.75 0 3.46-0.46 4.98-1.33l4.67 4.67c0.66 0.72 1.65 1.02 2.6 0.78 0.94-0.24 1.68-0.97 1.92-1.92 0.24-0.94-0.06-1.94-0.78-2.6l-4.67-4.67c0.87-1.51 1.33-3.23 1.33-4.98 0-0.33-0.02-0.67-0.05-1-0.23-2.31-1.25-4.47-2.89-6.11-1.88-1.89-4.44-2.95-7.1-2.94-0.3 0-0.59 0.02-0.89 0.04-0.09 0.01-0.18 0.02-0.27 0.03-0.2 0.02-0.41 0.05-0.61 0.09l-0.3 0.06c-0.2 0.04-0.4 0.09-0.59 0.14-0.09 0.02-0.18 0.04-0.26 0.07-0.03 0.01-0.07 0.02-0.1 0.03v-3.48c0-0.88 0.71-1.59 1.59-1.59h15.33v4.76c0 0.88 0.71 1.59 1.59 1.59h4.76v21.67c-0.03 0.88-0.74 1.59-1.61 1.59z"></path>
          <path class="st1" d="m56.74 17.84c0-0.29-0.24-0.53-0.53-0.53h-11.63c-0.29 0-0.53 0.24-0.53 0.53s0.24 0.53 0.53 0.53h11.63c0.29 0 0.53-0.24 0.53-0.53z"></path>
          <path class="st1" d="m62.55 26.83h-6.34c-0.29 0-0.53 0.24-0.53 0.53s0.24 0.53 0.53 0.53h6.34c0.29 0 0.53-0.24 0.53-0.53s-0.24-0.53-0.53-0.53z"></path>
          <path class="st1" d="m62.55 30h-6.34c-0.29 0-0.53 0.24-0.53 0.53s0.24 0.53 0.53 0.53h6.34c0.29 0 0.53-0.24 0.53-0.53s-0.24-0.53-0.53-0.53z"></path>
          <path class="st1" d="m63.08 33.7c0-0.29-0.24-0.53-0.53-0.53h-6.87c-0.29 0-0.53 0.24-0.53 0.53s0.24 0.53 0.53 0.53h6.87c0.29 0 0.53-0.24 0.53-0.53z"></path>
          <path class="st1" d="m63.08 36.87c0-0.29-0.24-0.53-0.53-0.53h-4.76c-0.29 0-0.53 0.24-0.53 0.53s0.24 0.53 0.53 0.53h4.76c0.29 0 0.53-0.24 0.53-0.53z"></path>
          <path class="st1" d="m56.74 21.01c0-0.29-0.24-0.53-0.53-0.53h-4.23c-0.29 0-0.53 0.24-0.53 0.53s0.24 0.53 0.53 0.53h4.23c0.29 0 0.53-0.23 0.53-0.53z"></path>
          <path class="st1" d="m63.08 24.19c0-0.29-0.24-0.53-0.53-0.53h-7.93c-0.29 0-0.53 0.24-0.53 0.53s0.24 0.53 0.53 0.53h7.93c0.29-0.01 0.53-0.24 0.53-0.53z"></path>
          <path class="st1" d="m42.99 27.36h3.7c0.29 0 0.53-0.24 0.53-0.53s-0.24-0.53-0.53-0.53h-3.7c-0.29 0-0.53 0.24-0.53 0.53s0.24 0.53 0.53 0.53z"></path>
          <path class="st1" d="m49.34 30c0-0.29-0.24-0.53-0.53-0.53h-7.93c-0.29 0-0.53 0.24-0.53 0.53s0.24 0.53 0.53 0.53h7.93c0.29 0 0.53-0.24 0.53-0.53z"></path>
          <path class="st1" d="m46.69 32.64h-3.7c-0.29 0-0.53 0.24-0.53 0.53s0.24 0.53 0.53 0.53h3.7c0.29 0 0.53-0.24 0.53-0.53s-0.24-0.53-0.53-0.53z"></path>
          <path class="st1" d="m48.72 36.82c1.29-0.69 2.36-1.72 3.08-2.99 0.04-0.07 0.09-0.14 0.13-0.22l0.06-0.12c0.08-0.15 0.16-0.31 0.23-0.47s0.12-0.31 0.18-0.46c0.02-0.04 0.04-0.09 0.05-0.13 1.34-3.91-0.54-8.19-4.33-9.85-3.79-1.65-8.21-0.12-10.16 3.53-0.61 1.15-0.93 2.43-0.93 3.73 0 2.79 1.46 5.38 3.86 6.81 2.39 1.44 5.37 1.5 7.83 0.17zm-7.06-0.94c-0.58-0.31-1.1-0.71-1.57-1.17-0.32-0.32-0.61-0.67-0.86-1.05-0.12-0.19-0.24-0.38-0.35-0.58-1.59-3-0.75-6.72 1.98-8.74s6.53-1.75 8.94 0.65c2.13 2.15 2.61 5.45 1.18 8.12-0.63 1.18-1.6 2.14-2.78 2.77-2.03 1.12-4.5 1.12-6.54 0z"></path>
          <path class="st1" d="m63.61 39.51c-0.29 0-0.53 0.24-0.53 0.53v2.11c0 0.29-0.24 0.53-0.53 0.53h-2.11c-0.29 0-0.53 0.24-0.53 0.53s0.24 0.53 0.53 0.53h2.11c0.88 0 1.59-0.71 1.59-1.59v-2.11c0-0.29-0.24-0.53-0.53-0.53z"></path>
          <text class="st1 st2 st3" transform="translate(85.149 37.798)">Requisitos</text>
      </svg>