<svg enable-background="new 0 0 500 60" version="1.1" viewBox="0 0 500 60" xml:space="preserve" xmlns="http://www.w3.org/2000/svg">
                  <linearGradient id="a" x1="134.12" x2="365.88" y1="-108.1" y2="168.1" gradientUnits="userSpaceOnUse">
                      <stop stop-color="#2E5BA7" offset=".01"></stop>
                      <stop stop-color="#3678AF" offset=".1701"></stop>
                      <stop stop-color="#4592B1" offset=".344"></stop>
                      <stop stop-color="#55A6AE" offset=".5132"></stop>
                      <stop stop-color="#61B4AA" offset=".6742"></stop>
                      <stop stop-color="#68BCA7" offset=".8236"></stop>
                      <stop stop-color="#6BBFA6" offset=".95"></stop>
                  </linearGradient>
                  <path class="st0" d="M500,53.23c0,3.68-4.49,6.69-9.98,6.69H9.98C4.49,59.92,0,56.91,0,53.23V6.77c0-3.68,4.49-6.69,9.98-6.69     h480.04c5.49,0,9.98,3.01,9.98,6.69V53.23z"></path>
                  <path class="st1" d="m66.67 52.92h-32.19c-3.54 0-6.41-2.88-6.41-6.41v-32.19c0-3.54 2.88-6.41 6.41-6.41h32.18c3.54 0 6.41 2.88 6.41 6.41v32.18c0.01 3.54-2.87 6.42-6.4 6.42zm-32.19-44.29c-3.14 0-5.69 2.55-5.69 5.69v32.18c0 3.14 2.55 5.69 5.69 5.69h32.18c3.14 0 5.69-2.55 5.69-5.69v-32.18c0-3.14-2.55-5.69-5.69-5.69h-32.18z"></path>
              <path class="st1" d="m42.76 40.62c1.33 0 2.39-1.12 2.39-2.43 0-1.32-1.06-2.43-2.39-2.43s-2.39 1.12-2.39 2.43 1.06 2.43 2.39 2.43zm0-3.67c0.65 0 1.2 0.57 1.2 1.24s-0.55 1.24-1.2 1.24-1.2-0.57-1.2-1.24 0.55-1.24 1.2-1.24z"></path>
      <path class="st1" d="m42.76 32.76c1.32 0 2.39-1.07 2.39-2.39s-1.07-2.39-2.39-2.39-2.39 1.07-2.39 2.39 1.07 2.39 2.39 2.39zm0-3.59c0.66 0 1.2 0.54 1.2 1.2s-0.54 1.2-1.2 1.2-1.2-0.54-1.2-1.2 0.54-1.2 1.2-1.2z"></path>
      <path class="st1" d="m42.76 24.99c1.32 0 2.39-1.07 2.39-2.39s-1.07-2.39-2.39-2.39-2.39 1.07-2.39 2.39 1.07 2.39 2.39 2.39zm0-3.59c0.66 0 1.2 0.54 1.2 1.2s-0.54 1.2-1.2 1.2-1.2-0.54-1.2-1.2 0.54-1.2 1.2-1.2z"></path>
      <path class="st1" d="m58.39 20.2h-9.65c-1.32 0-2.39 1.07-2.39 2.39s1.07 2.39 2.39 2.39h9.65c1.32 0 2.39-1.07 2.39-2.39s-1.07-2.39-2.39-2.39zm-10.85 2.4c0-0.66 0.54-1.2 1.2-1.2h3.67c0.66 0 1.2 0.54 1.2 1.2s-0.54 1.2-1.2 1.2h-3.67c-0.66-0.01-1.2-0.54-1.2-1.2zm10.85 1.19h-3.91c0.2-0.35 0.32-0.76 0.32-1.2s-0.12-0.84-0.32-1.2h3.91c0.66 0 1.2 0.54 1.2 1.2s-0.54 1.2-1.2 1.2z"></path>
      <path class="st1" d="m58.39 27.98h-9.65c-1.32 0-2.39 1.07-2.39 2.39s1.07 2.39 2.39 2.39h9.65c1.32 0 2.39-1.07 2.39-2.39s-1.07-2.39-2.39-2.39zm-10.85 2.39c0-0.66 0.54-1.2 1.2-1.2h6.06c0.66 0 1.2 0.54 1.2 1.2s-0.54 1.2-1.2 1.2h-6.06c-0.66 0-1.2-0.54-1.2-1.2zm10.85 1.2h-1.52c0.2-0.35 0.32-0.76 0.32-1.2s-0.12-0.84-0.32-1.2h1.52c0.66 0 1.2 0.54 1.2 1.2s-0.54 1.2-1.2 1.2z"></path>
      <path class="st1" d="m58.39 35.75h-9.65c-0.64 0-1.24 0.26-1.7 0.73-0.45 0.46-0.69 1.07-0.69 1.71s0.25 1.24 0.69 1.71c0.45 0.47 1.06 0.73 1.7 0.73h9.65c0.64 0 1.24-0.26 1.7-0.73 0.45-0.46 0.69-1.07 0.69-1.71s-0.25-1.24-0.69-1.71c-0.46-0.47-1.06-0.73-1.7-0.73zm-10.85 2.44c0-0.67 0.55-1.24 1.2-1.24h4.86c0.65 0 1.2 0.57 1.2 1.24s-0.55 1.24-1.2 1.24h-4.86c-0.65-0.01-1.2-0.57-1.2-1.24zm10.85 1.23h-2.73c0.22-0.37 0.34-0.8 0.34-1.24s-0.12-0.86-0.34-1.24h2.73c0.65 0 1.2 0.57 1.2 1.24s-0.55 1.24-1.2 1.24z"></path>
          <text class="st1 st2 st3" transform="translate(85.149 37.798)">Classificação</text>
      </svg>