<svg enable-background="new 0 0 500 60" version="1.1" viewBox="0 0 500 60" xml:space="preserve" xmlns="http://www.w3.org/2000/svg">
                  <linearGradient id="a" x1="-19.895" x2="140.2" y1="4.3192" y2="13.143" gradientUnits="userSpaceOnUse">
          <stop stop-color="#1EB8D1" offset=".0093541"></stop>
          <stop stop-color="#32B18C" offset=".9508"></stop>
                              </linearGradient>
                  <path class="st0" d="M500,53.23c0,3.68-4.49,6.69-9.98,6.69H9.98C4.49,59.92,0,56.91,0,53.23V6.77c0-3.68,4.49-6.69,9.98-6.69     h480.04c5.49,0,9.98,3.01,9.98,6.69V53.23z"></path>
                  <path class="st1" d="m66.67 52.92h-32.19c-3.54 0-6.41-2.88-6.41-6.41v-32.19c0-3.54 2.88-6.41 6.41-6.41h32.18c3.54 0 6.41 2.88 6.41 6.41v32.18c0.01 3.54-2.87 6.42-6.4 6.42zm-32.19-44.29c-3.14 0-5.69 2.55-5.69 5.69v32.18c0 3.14 2.55 5.69 5.69 5.69h32.18c3.14 0 5.69-2.55 5.69-5.69v-32.18c0-3.14-2.55-5.69-5.69-5.69h-32.18z"></path>
              <path class="st1" d="m65.8 17.89c-0.14-0.05-3.59-1.26-7.77-1.26-3.51 0-6.5 0.85-7.46 1.15-0.96-0.3-3.95-1.15-7.46-1.15-4.18 0-7.63 1.2-7.77 1.26-0.38 0.13-0.63 0.49-0.63 0.89v19.27c0 0.31 0.15 0.59 0.4 0.77 0.46 0.33 0.86 0.11 1.3-0.02v3.35c0 0.28 0.13 0.55 0.34 0.73 0.22 0.18 0.5 0.25 0.78 0.2l9.94-1.9c0.44 0.96 1.44 1.73 2.55 1.88 0.35 0.18 2.62 0.11 3.6-1.92 11.06 2.06 10.41 1.96 10.58 1.96 0.52 0 0.94-0.42 0.94-0.94v-3.23c0.71 0.24 1.29-0.27 1.29-0.88v-19.27c0-0.4-0.25-0.75-0.63-0.89zm-1.25 1.58v17.32c-4.53-1.21-8.82-1.13-13.03 0v-17.32c4.47-1.3 8.79-1.22 13.03 0zm-27.95 0c4.29-1.25 8.63-1.27 13.03 0v17.32c-4.27-1.14-8.55-1.2-13.03 0v-17.32zm1.7 18.85c3.16-0.67 5.92-0.68 8.86-0.15v1.15l-8.86 1.7v-2.7zm13.56 2.12c-0.73 1.28-2.59 0.88-2.82-0.5v-1.36c1.24 0.32 1.4 0.52 1.85 0.36 0.01 0 0.38-0.14 1.14-0.34v1.34c-0.01 0.17-0.1 0.36-0.17 0.5zm11.39 0.58l-9.34-1.75v-1.09c3.1-0.57 6.03-0.53 9.34 0.23v2.61z"></path>
              <path class="st1" d="m55.24 23.32c3.5-1.12 5.31 0.05 5.88 0.05 0.39 0 0.75-0.24 0.89-0.62 0.18-0.49-0.08-1.03-0.57-1.21-3.6-1.29-6.63-0.05-6.77-0.01-0.49 0.16-0.77 0.69-0.61 1.19 0.15 0.49 0.68 0.76 1.18 0.6z"></path>
              <path class="st1" d="m61.43 26.69c-3.66-1.31-6.6-0.04-6.77-0.01-0.5 0.16-0.77 0.69-0.61 1.18 0.16 0.5 0.69 0.77 1.18 0.61 0.15-0.02 2.58-1.08 5.56-0.01 0.49 0.18 1.03-0.08 1.21-0.57s-0.08-1.02-0.57-1.2z"></path>
              <path class="st1" d="m61.43 31.84c-3.66-1.31-6.6-0.04-6.77-0.01-0.5 0.16-0.77 0.69-0.61 1.18 0.16 0.5 0.69 0.77 1.18 0.61 0.15-0.02 2.58-1.08 5.56-0.01 0.49 0.18 1.03-0.08 1.21-0.57s-0.08-1.03-0.57-1.2z"></path>
              <path class="st1" d="m40.32 23.32c0.15-0.02 2.58-1.08 5.56-0.01 0.49 0.18 1.03-0.08 1.2-0.57 0.18-0.49-0.08-1.03-0.57-1.21-2.02-0.73-4.33-0.8-6.46-0.11-0.13 0.07-0.72 0.1-0.92 0.7-0.23 0.73 0.45 1.44 1.19 1.2z"></path>
              <path class="st1" d="m46.52 26.69c-3.66-1.31-6.6-0.04-6.77-0.01-0.5 0.16-0.77 0.69-0.61 1.18 0.16 0.5 0.69 0.77 1.18 0.61 0.15-0.02 2.58-1.08 5.56-0.01 0.49 0.18 1.03-0.08 1.21-0.57 0.17-0.49-0.08-1.02-0.57-1.2z"></path>
              <path class="st1" d="m46.52 31.84c-3.66-1.31-6.6-0.04-6.77-0.01-0.5 0.16-0.77 0.69-0.61 1.18 0.16 0.5 0.69 0.77 1.18 0.61 0.15-0.02 2.58-1.08 5.56-0.01 0.49 0.18 1.03-0.08 1.21-0.57 0.17-0.49-0.08-1.03-0.57-1.2z"></path>
          <text class="st1 st2 st3" transform="translate(85.149 37.798)">Definição</text>
      </svg>