<svg enable-background="new 0 0 500 60" version="1.1" viewBox="0 0 500 60" xml:space="preserve" xmlns="http://www.w3.org/2000/svg">
                  <linearGradient id="a" x1="134.12" x2="365.88" y1="-108.1" y2="168.1" gradientUnits="userSpaceOnUse">
                      <stop stop-color="#2E5BA7" offset=".01"></stop>
                      <stop stop-color="#3678AF" offset=".1701"></stop>
                      <stop stop-color="#4592B1" offset=".344"></stop>
                      <stop stop-color="#55A6AE" offset=".5132"></stop>
                      <stop stop-color="#61B4AA" offset=".6742"></stop>
                      <stop stop-color="#68BCA7" offset=".8236"></stop>
                      <stop stop-color="#6BBFA6" offset=".95"></stop>
                  </linearGradient>
                  <path class="st0" d="M500,53.23c0,3.68-4.49,6.69-9.98,6.69H9.98C4.49,59.92,0,56.91,0,53.23V6.77c0-3.68,4.49-6.69,9.98-6.69     h480.04c5.49,0,9.98,3.01,9.98,6.69V53.23z"></path>
                  <path class="st1" d="m66.67 52.92h-32.19c-3.54 0-6.41-2.88-6.41-6.41v-32.19c0-3.54 2.88-6.41 6.41-6.41h32.18c3.54 0 6.41 2.88 6.41 6.41v32.18c0.01 3.54-2.87 6.42-6.4 6.42zm-32.19-44.29c-3.14 0-5.69 2.55-5.69 5.69v32.18c0 3.14 2.55 5.69 5.69 5.69h32.18c3.14 0 5.69-2.55 5.69-5.69v-32.18c0-3.14-2.55-5.69-5.69-5.69h-32.18z"></path>		
        <path class="st1" d="m53.48 35.85l-2.33-2.33c0.38-0.12 0.71-0.32 0.99-0.6l0.06-0.06c1.02-1.02 0.94-2.77-0.18-3.9-0.54-0.54-1.23-0.85-1.95-0.9-0.75-0.05-1.44 0.21-1.95 0.72l-0.06 0.06c-0.28 0.28-0.48 0.62-0.6 0.99l-2.33-2.33c-0.69-0.69-1.76-0.73-2.39-0.09l-2.11 2.11c-0.26 0.26-0.37 0.63-0.29 1 0.09 0.4 0.37 0.73 0.75 0.88 0.24 0.09 0.46 0.24 0.65 0.43l0.07 0.07c0.32 0.32 0.52 0.74 0.54 1.16 0.02 0.4-0.1 0.75-0.36 1.01s-0.61 0.38-1.01 0.36c-0.42-0.03-0.84-0.22-1.16-0.54l-0.07-0.07c-0.19-0.19-0.34-0.41-0.43-0.65-0.15-0.39-0.48-0.67-0.88-0.75-0.37-0.08-0.75 0.03-1 0.29l-2.11 2.11c-0.63 0.63-0.59 1.71 0.09 2.39l2.33 2.33c-0.38 0.12-0.72 0.32-0.99 0.6l-0.06 0.06c-1.02 1.02-0.94 2.77 0.18 3.9 0.6 0.6 1.37 0.9 2.12 0.9 0.66 0 1.3-0.24 1.78-0.72l0.06-0.06c0.28-0.28 0.48-0.62 0.6-0.99l2.33 2.33c0.32 0.32 0.74 0.51 1.18 0.54h0.1c0.42 0 0.82-0.16 1.11-0.45l2.01-2.01c0.16 0.38 0.39 0.72 0.68 1.02l0.07 0.07c1.13 1.13 2.88 1.21 3.9 0.18 1.02-1.02 0.94-2.77-0.18-3.9l-0.07-0.07c-0.3-0.3-0.64-0.53-1.02-0.68l2.01-2.01c0.31-0.31 0.48-0.76 0.45-1.21-0.01-0.45-0.21-0.87-0.53-1.19zm-0.77 1.52l-2.11 2.11c-0.26 0.26-0.37 0.63-0.29 1 0.09 0.4 0.37 0.73 0.75 0.88 0.24 0.09 0.46 0.24 0.65 0.43l0.07 0.07c0.65 0.65 0.73 1.62 0.18 2.17s-1.52 0.47-2.17-0.18l-0.07-0.07c-0.19-0.19-0.34-0.41-0.43-0.65-0.15-0.39-0.48-0.67-0.88-0.75-0.37-0.08-0.75 0.03-1 0.29l-2.11 2.11c-0.08 0.08-0.2 0.1-0.28 0.09-0.14-0.01-0.28-0.08-0.39-0.18l-0.93-0.93 2.03-2.03c0.24-0.24 0.24-0.63 0-0.87s-0.63-0.24-0.87 0l-2.03 2.03-0.63-0.63c-0.23-0.23-0.54-0.36-0.85-0.36-0.11 0-0.21 0.02-0.32 0.05-0.38 0.11-0.65 0.41-0.73 0.79-0.05 0.24-0.16 0.45-0.33 0.62l-0.06 0.06c-0.55 0.55-1.52 0.47-2.17-0.18s-0.73-1.62-0.18-2.17l0.06-0.06c0.17-0.17 0.38-0.28 0.62-0.33 0.38-0.08 0.68-0.36 0.79-0.73 0.12-0.4 0-0.85-0.31-1.16l-2.43-2.43c-0.11-0.11-0.18-0.25-0.18-0.39 0-0.08 0.01-0.19 0.09-0.28l2.01-2.01c0.16 0.38 0.39 0.72 0.68 1.02l0.07 0.07c1.13 1.13 2.88 1.21 3.9 0.18 1.02-1.02 0.94-2.77-0.18-3.9l-0.07-0.07c-0.3-0.3-0.64-0.53-1.02-0.68l2.01-2.01c0.15-0.15 0.46-0.11 0.66 0.09l2.43 2.43c0.31 0.31 0.76 0.43 1.16 0.31 0.38-0.11 0.65-0.41 0.73-0.79 0.05-0.24 0.16-0.45 0.33-0.62l0.06-0.06c0.26-0.26 0.61-0.38 1.01-0.36 0.42 0.03 0.84 0.22 1.16 0.54 0.65 0.65 0.73 1.62 0.18 2.17l-0.06 0.06c-0.17 0.17-0.38 0.28-0.62 0.33-0.38 0.08-0.68 0.36-0.79 0.73-0.12 0.4 0 0.85 0.31 1.16l2.43 2.43c0.11 0.11 0.18 0.25 0.18 0.39 0.04 0.08 0.02 0.19-0.06 0.27z"></path>
      <path class="st1" d="m64.91 28.81c-0.33-0.33-0.74-0.59-1.17-0.74l2.05-2.05c0.31-0.31 0.48-0.76 0.45-1.21-0.03-0.44-0.22-0.86-0.54-1.18l-2.28-2.28c0.32-0.12 0.61-0.31 0.85-0.55l0.06-0.06c1.02-1.02 0.94-2.77-0.18-3.9-1.13-1.13-2.88-1.21-3.9-0.18l-0.06 0.06c-0.24 0.24-0.43 0.53-0.55 0.86l-2.28-2.28c-0.69-0.69-1.76-0.73-2.39-0.09l-2.05 2.05c-0.15-0.43-0.41-0.84-0.74-1.17l-0.07-0.09c-1.13-1.13-2.88-1.21-3.9-0.18-1.02 1.02-0.94 2.77 0.18 3.9l0.07 0.07c0.33 0.33 0.74 0.59 1.17 0.74l-2.05 2.05c-0.63 0.63-0.59 1.71 0.09 2.39l2.44 2.43c0.31 0.31 0.76 0.43 1.16 0.31 0.38-0.11 0.65-0.41 0.73-0.79 0.05-0.24 0.16-0.45 0.33-0.62l0.06-0.06c0.26-0.26 0.61-0.38 1.01-0.36 0.42 0.03 0.84 0.22 1.16 0.54s0.52 0.74 0.54 1.16c0.02 0.4-0.1 0.75-0.36 1.01l-0.06 0.06c-0.17 0.17-0.38 0.28-0.62 0.33-0.38 0.08-0.68 0.36-0.79 0.73-0.12 0.4 0 0.85 0.31 1.16l2.43 2.43c0.36 0.36 0.83 0.54 1.28 0.54 0.41 0 0.81-0.15 1.11-0.45l2.05-2.05c0.15 0.43 0.41 0.84 0.74 1.17l0.07 0.07c1.13 1.13 2.88 1.21 3.9 0.18 1.02-1.02 0.94-2.77-0.18-3.9l-0.07-0.05zm-0.62 3.1c-0.55 0.55-1.52 0.47-2.17-0.18l-0.07-0.07c-0.21-0.21-0.37-0.47-0.46-0.75-0.13-0.4-0.46-0.71-0.87-0.81-0.38-0.09-0.77 0.01-1.03 0.28l-2.16 2.16c-0.08 0.08-0.2 0.1-0.28 0.09-0.14-0.01-0.28-0.08-0.39-0.18l-2.32-2.33c0.38-0.12 0.72-0.32 0.99-0.6l0.06-0.06c0.51-0.51 0.76-1.2 0.72-1.95-0.04-0.72-0.36-1.42-0.9-1.95s-1.23-0.85-1.95-0.9c-0.75-0.05-1.44 0.21-1.95 0.72l-0.06 0.06c-0.28 0.28-0.48 0.62-0.6 0.99l-2.33-2.33c-0.11-0.11-0.18-0.25-0.18-0.39 0-0.08 0.01-0.19 0.09-0.28l2.16-2.16c0.27-0.27 0.37-0.65 0.28-1.03-0.1-0.41-0.41-0.74-0.81-0.87-0.27-0.09-0.53-0.25-0.75-0.46l-0.07-0.07c-0.65-0.65-0.73-1.62-0.18-2.17s1.52-0.47 2.17 0.18l0.07 0.07c0.21 0.21 0.37 0.47 0.46 0.75 0.13 0.4 0.46 0.71 0.87 0.81 0.38 0.09 0.77-0.01 1.03-0.28l2.16-2.16c0.15-0.15 0.46-0.11 0.66 0.09l2.38 2.38c0.3 0.3 0.73 0.42 1.13 0.32 0.37-0.1 0.65-0.37 0.75-0.74 0.06-0.21 0.16-0.39 0.31-0.54l0.06-0.06c0.55-0.55 1.52-0.47 2.17 0.18s0.73 1.62 0.18 2.17l-0.06 0.06c-0.15 0.15-0.33 0.25-0.54 0.31-0.36 0.1-0.64 0.38-0.74 0.75-0.1 0.4 0.02 0.83 0.32 1.13l2.38 2.38c0.11 0.11 0.18 0.25 0.18 0.39 0 0.08-0.01 0.19-0.09 0.28l-0.98 0.98-2.03-2.03c-0.24-0.24-0.63-0.24-0.87 0s-0.24 0.63 0 0.87l2.05 2.04-0.31 0.31c-0.27 0.27-0.37 0.65-0.28 1.03 0.1 0.41 0.41 0.74 0.81 0.87 0.27 0.09 0.53 0.25 0.75 0.46l0.07 0.07c0.64 0.65 0.72 1.62 0.17 2.17z"></path>
          <text class="st1 st2 st3" transform="translate(85.149 37.798)">Características</text>
      </svg>